<svg width="8" height="16" viewBox="0 0 8 16" fill="none" xmlns="http://www.w3.org/2000/svg">
<path d="M2.98 10.8C2.96667 10.1867 3.02667 9.67333 3.16 9.26C3.30667 8.83333 3.48667 8.46667 3.7 8.16C3.92667 7.84 4.16667 7.56 4.42 7.32C4.68667 7.06667 4.93333 6.81333 5.16 6.56C5.38667 6.29333 5.57333 6.00667 5.72 5.7C5.88 5.39333 5.96 5.02 5.96 4.58C5.96 3.96667 5.78667 3.46667 5.44 3.08C5.09333 2.69333 4.58667 2.5 3.92 2.5C3.21333 2.5 2.66667 2.73333 2.28 3.2C1.90667 3.65333 1.70667 4.28 1.68 5.08H0.0200001V4.58C0.113333 3.34 0.526667 2.41333 1.26 1.8C2.00667 1.17333 2.92667 0.86 4.02 0.86C4.56667 0.86 5.07333 0.939999 5.54 1.1C6.02 1.26 6.43333 1.49333 6.78 1.8C7.14 2.09333 7.42 2.46 7.62 2.9C7.82 3.32667 7.92 3.81333 7.92 4.36C7.92 4.93333 7.83333 5.42667 7.66 5.84C7.5 6.25333 7.29333 6.62667 7.04 6.96C6.78667 7.28 6.51333 7.57333 6.22 7.84C5.92667 8.09333 5.65333 8.36667 5.4 8.66C5.16 8.94 4.95333 9.25333 4.78 9.6C4.60667 9.93333 4.52 10.3333 4.52 10.8H2.98ZM3.78 15.2C3.39333 15.2 3.09333 15.0867 2.88 14.86C2.66667 14.62 2.56 14.34 2.56 14.02C2.56 13.6733 2.66 13.3867 2.86 13.16C3.07333 12.92 3.38 12.8 3.78 12.8C4.16667 12.8 4.46667 12.92 4.68 13.16C4.90667 13.3867 5.02 13.6733 5.02 14.02C5.02 14.34 4.90667 14.62 4.68 14.86C4.46667 15.0867 4.16667 15.2 3.78 15.2Z" fill="black"/>
</svg>
