<svg xmlns="http://www.w3.org/2000/svg" xmlns:xlink="http://www.w3.org/1999/xlink"><symbol id="sprite-popup" fill="none" viewBox="0 0 8 16"><path fill="#000" d="M2.98 10.8q-.02-.92.18-1.54.22-.64.54-1.1.34-.48.72-.84.4-.38.74-.76.34-.4.56-.86.24-.46.24-1.12 0-.92-.52-1.5t-1.52-.58q-1.06 0-1.64.7-.56.68-.6 1.88h-1.66v-.5q.14-1.86 1.24-2.78 1.12-.94 2.76-.94.82 0 1.52.24.72.24 1.24.7.54.44.84 1.1.3.64.3 1.46 0 .86-.26 1.48-.24.62-.62 1.12-.38.48-.82.88a8 8 0 0 0-.82.82q-.36.42-.62.94-.26.5-.26 1.2zm.8 4.4q-.58 0-.9-.34-.32-.36-.32-.84 0-.52.3-.86.32-.36.92-.36.58 0 .9.36.34.34.34.86 0 .48-.34.84-.32.34-.9.34"/></symbol><use xlink:href="#sprite-popup" width="8" height="16"/><view id="sprite-popup-view" viewBox="0 0 8 16"/></svg>